<svg t="1691068399055" class="icon" viewBox="0 0 1024 1024" version="1.1" xmlns="http://www.w3.org/2000/svg" p-id="2829" width="200" height="200"><path d="M803.846581 0.17232C792.329598-6.77767 634.671824 198.735035 623.949839 213.627013s-9.927986 32.961953 1.588998 39.712943a32.563953 32.563953 0 0 0 39.711943-14.891978C676.369764 223.555999 815.363565 7.320309 803.846581 0.17232z m78.829887 73.865894c-9.928986-8.935987-204.122707 162.225767-217.426688 174.933749s-16.082977 30.379956-6.154991 39.711943a32.762953 32.762953 0 0 0 42.094939-6.750991c13.501981-13.303981 191.414725-198.959714 181.48674-207.894701z m85.778877 84.984878c-8.339988-8.736987-196.179718 135.021806-209.0867 145.94279s-16.679976 26.607962-8.140988 35.343949a29.585958 29.585958 0 0 0 38.520944-2.579996c12.906981-10.921984 187.045731-168.977757 178.706744-178.706743z m-345.499504 232.516666c-10.721985-8.339988-415.193404 570.073182-425.717389 585.36216a32.762953 32.762953 0 0 0 1.190998 43.087938c10.721985 8.537988 27.99696 2.977996 38.123945-12.309983S633.876825 400.076746 622.955841 391.539758zM923.779409 382.99977c-10.126985 0-72.276896 81.807883-182.081739 65.525906-38.719944-5.757992-92.529867-27.003961-120.725826 11.913983a85.779877 85.779877 0 0 0 26.010962 119.137829c37.726946 27.400961 99.281857 25.613963 158.849772-27.79996A540.487224 540.487224 0 0 0 923.779409 383.00177z" p-id="2830" fill="#efb336"></path><path d="M645.989808 629.417416c-42.889938-8.736987-98.089859-43.881937-137.802803 10.721985-26.209962 35.939948-9.729986 92.529867 36.733948 126.285819 43.286938 31.372955 110.202842 33.556952 172.749752-18.266974a524.205247 524.205247 0 0 0 121.122826-158.849772c-10.919984-0.397999-71.481897 64.729907-192.803723 40.108942z" p-id="2831" fill="#efb336"></path><path d="M730.179687 793.033182c-11.119984-1.191998-84.189879 46.859933-205.709705 22.039968-42.691939-8.736987-85.977877-59.568914-137.604802 10.722985-26.209962 36.137948-9.729986 92.529867 36.535947 126.285818 43.285938 31.371955 110.399842 33.556952 172.947752-18.267974A873.674746 873.674746 0 0 0 730.179687 793.033182zM535.985966 245.198968c-60.958912-122.115825 11.516983-226.361675 7.147989-238.275658a666.773043 666.773043 0 0 0-151.899782 201.144711c-39.712943 90.74287-18.267974 163.416765 28.19496 197.172717 49.839928 36.137948 116.357833 29.584958 148.524787-14.693979 34.74895-47.456932-10.522985-102.259853-31.967954-145.347791z" p-id="2832" fill="#efb336"></path><path d="M379.71719 419.735717c-75.056892-132.44181-21.841969-228.149672-26.805962-240.856654a648.307069 648.307069 0 0 0-138.9938 202.33471c-36.932947 92.729867-8.934987 170.366755 44.279936 209.0867 57.185918 41.49994 129.461814 39.712943 161.827768-5.162993 48.249931-67.311903-13.69998-118.73983-40.307942-165.401763z" p-id="2833" fill="#efb336"></path><path d="M238.142393 635.572408c-75.255892-131.844811-47.059932-235.891661-52.619924-248.401644A1066.678469 1066.678469 0 0 0 71.746632 597.449462c-36.535948 92.927867-8.736987 170.565755 44.477936 209.2857 57.185918 41.49994 129.462814 39.711943 161.629768-5.162993 63.539909-86.572876-13.303981-118.54183-39.711943-165.998761z" p-id="2834" fill="#efb336"></path></svg>